# xmcd CD database file generated by LOLA_Freedb v0.9beta0
# 
# Track frame offsets:
#      150
#      23027
#      43204
#      70131
#      94433
#      109735
#      126162
#      142739
#      159691
#      173418
#      189995
# 
# Disc length: 2815 seconds
# 
# Revision: 2 
# Processed by: cddbd v1.5.2PL0 Copyright (c) Steve Scherf et al.
# Submitted via: LOLA_Freedb v0.9beta0
# 
DISCID=8f0afd0b
DTITLE=Tracy Chapman - Where you live
DYEAR=1900
DGENRE=
TTITLE0=Tracy Chapman - change
TTITLE1=talk to you
TTITLE2=3,000 miles
TTITLE3=going back
TTITLE4=don't dwell
TTITLE5=never yours
TTITLE6=america
TTITLE7=love's proof
TTITLE8=before easter
TTITLE9=taken
TTITLE10=be and be not afraid
EXTD=
EXTT0=
EXTT1=
EXTT2=
EXTT3=
EXTT4=
EXTT5=
EXTT6=
EXTT7=
EXTT8=
EXTT9=
EXTT10=
PLAYORDER=
